#!OML:ASF H:\Pregnant\Project 1\Capture day 1\Session 1\femalepreg.ASF
:FULLY-SPECIFIED
:DEGREES
590
root 8.32711 20.1232 7.6773 -159.429 9.13865 -177.224
lowerback -10.7634 1.45163 1.45195
upperback -8.24706 2.86556 0.872401
thorax -2.56558 1.84575 0.308052
lowerneck -27.6522 5.52375 9.13904
upperneck 27.009 5.14671 -2.38554
head 14.1802 2.99353 -1.40306
rclavicle -5.65108e-014 -2.3059e-014
rhumerus -36.7403 -5.71973 -77.4919
rradius 33.9839
rwrist -4.40046
rhand -15.2365 -18.5356
rfingers 7.12502
rthumb 10.9367 -48.2308
lclavicle -5.65108e-014 -2.3059e-014
lhumerus -39.8284 -5.48004 83.2425
lradius 27.5739
lwrist 41.981
lhand -25.1803 -1.56596
lfingers 7.12502
lthumb 1.3374 28.4096
rfemur -37.0625 21.917 21.7024
rtibia 38.0094
rfoot -17.1062 -7.60913
rtoes -11.7969
lfemur -44.9493 -8.49307 -11.792
ltibia 30.6074
lfoot -4.51804 3.34637
ltoes -40.28
591
root 8.31129 20.1322 7.64107 -159.495 9.37166 -177.237
lowerback -10.8187 1.37437 1.24168
upperback -8.19709 2.75955 0.757064
thorax -2.48446 1.79202 0.30155
lowerneck -27.659 5.67167 9.21884
upperneck 26.7864 5.26709 -2.29035
head 14.0943 3.0559 -1.35403
rclavicle 1.80972e-014 7.20594e-015
rhumerus -36.6011 -5.80049 -77.6639
rradius 33.6948
rwrist -4.16156
rhand -15.4246 -18.5595
rfingers 7.12502
rthumb 10.7552 -48.2642
lclavicle 1.80972e-014 7.20594e-015
lhumerus -39.6588 -5.63551 83.2691
lradius 27.1148
lwrist 41.8633
lhand -25.2671 -1.38935
lfingers 7.12502
lthumb 1.25359 28.5867
rfemur -36.7419 22.129 21.5956
rtibia 37.7778
rfoot -17.1252 -7.64372
rtoes -11.8222
lfemur -44.6874 -8.61889 -11.8337
ltibia 30.5163
lfoot -4.29602 3.42945
ltoes -40.2703
592
root 8.29646 20.142 7.60415 -159.571 9.5715 -177.268
lowerback -10.8782 1.29122 1.01249
upperback -8.14766 2.64893 0.637816
thorax -2.40213 1.73701 0.301132
lowerneck -27.6193 5.80124 9.27487
upperneck 26.5283 5.37363 -2.18614
head 13.9823 3.11129 -1.3017
rclavicle 1.35756e-014 1.66358e-014
rhumerus -36.4274 -6.05627 -77.7599
rradius 33.2528
rwrist -3.84192
rhand -15.6444 -18.5102
rfingers 7.12502
rthumb 10.5432 -48.2258
lclavicle 1.35756e-014 1.66358e-014
lhumerus -39.5075 -5.84866 83.315
lradius 26.6841
lwrist 41.684
lhand -25.3431 -1.20468
lfingers 7.12502
lthumb 1.18015 28.7718
rfemur -36.4 22.2992 21.4911
rtibia 37.5421
rfoot -17.1547 -7.67042
rtoes -11.8316
lfemur -44.4025 -8.74327 -11.8958
ltibia 30.4107
lfoot -4.15853 3.52079
ltoes -40.2534
593
root 8.28251 20.152 7.56683 -159.655 9.74794 -177.305
lowerback -10.9386 1.20829 0.773559
upperback -8.10346 2.54211 0.514631
thorax -2.32484 1.68486 0.302075
lowerneck -27.5297 5.90516 9.31789
upperneck 26.2422 5.45844 -2.0908
head 13.8472 3.15527 -1.25687
rclavicle 2.99614e-014 1.80894e-014
rhumerus -36.2591 -6.44769 -77.7944
rradius 32.7213
rwrist -3.48456
rhand -15.8814 -18.455
rfingers 7.12502
rthumb 10.3146 -48.1821
lclavicle 2.99614e-014 1.80894e-014
lhumerus -39.3795 -6.11743 83.3763
lradius 26.2856
lwrist 41.446
lhand -25.3728 -1.00189
lfingers 7.12502
lthumb 1.15154 28.9747
rfemur -36.0414 22.4364 21.3926
rtibia 37.2987
rfoot -17.1949 -7.67801
rtoes -11.7915
lfemur -44.0974 -8.84268 -11.9807
ltibia 30.2948
lfoot -4.08229 3.61589
ltoes -40.2436
594
root 8.26893 20.1622 7.52923 -159.736 9.9046 -177.34
lowerback -11.0029 1.12602 0.533583
upperback -8.05838 2.43792 0.392362
thorax -2.24452 1.63435 0.304755
lowerneck -27.427 5.99681 9.33453
upperneck 25.9343 5.53289 -1.97788
head 13.6989 3.19446 -1.20384
rclavicle -1.87292e-014 -6.75868e-015
rhumerus -36.1493 -6.86098 -77.811
rradius 32.2441
rwrist -3.19036
rhand -16.1305 -18.4144
rfingers 7.12502
rthumb 10.0742 -48.1533
lclavicle -1.87292e-014 -6.75868e-015
lhumerus -39.2526 -6.41309 83.4418
lradius 25.9214
lwrist 41.1541
lhand -25.3684 -0.752261
lfingers 7.12502
lthumb 1.15571 29.2244
rfemur -35.6737 22.541 21.3048
rtibia 37.0406
rfoot -17.2426 -7.65726
rtoes -11.6986
lfemur -43.7845 -8.8988 -12.0869
ltibia 30.1706
lfoot -4.05836 3.69306
ltoes -40.2514
595
root 8.25544 20.1724 7.49121 -159.802 10.0475 -177.357
lowerback -11.0693 1.05055 0.313451
upperback -8.02939 2.3461 0.271318
thorax -2.17942 1.59086 0.298057
lowerneck -27.3082 6.06921 9.34929
upperneck 25.6338 5.59011 -1.87995
head 13.5508 3.225 -1.16077
rclavicle -5.87036e-015 1.19271e-015
rhumerus -36.1076 -7.31938 -77.7948
rradius 31.7918
rwrist -2.93285
rhand -16.3714 -18.4359
rfingers 7.12502
rthumb 9.84182 -48.1859
lclavicle -5.87036e-015 1.19271e-015
lhumerus -39.15 -6.74799 83.5151
lradius 25.5943
lwrist 40.8264
lhand -25.3367 -0.496748
lfingers 7.12502
lthumb 1.18636 29.4797
rfemur -35.304 22.6213 21.237
rtibia 36.7615
rfoot -17.2916 -7.6065
rtoes -11.5617
lfemur -43.4726 -8.89907 -12.2027
ltibia 30.0373
lfoot -4.0768 3.73911
ltoes -40.2823
596
root 8.24172 20.1827 7.45298 -159.85 10.1812 -177.349
lowerback -11.1473 0.982451 0.115689
upperback -7.99229 2.26261 0.157302
thorax -2.09908 1.55062 0.287341
lowerneck -27.246 6.13761 9.34716
upperneck 25.3542 5.64136 -1.77759
head 13.4222 3.25159 -1.11367
rclavicle 1.90709e-015 -9.93923e-016
rhumerus -36.0901 -7.8096 -77.755
rradius 31.379
rwrist -2.70147
rhand -16.5792 -18.4809
rfingers 7.12502
rthumb 9.64133 -48.2403
lclavicle 1.90709e-015 -9.93923e-016
lhumerus -39.0192 -7.09904 83.5904
lradius 25.3033
lwrist 40.4852
lhand -25.3222 -0.216649
lfingers 7.12502
lthumb 1.2004 29.7597
rfemur -34.9361 22.6872 21.1918
rtibia 36.4538
rfoot -17.3308 -7.53131
rtoes -11.4048
lfemur -43.1668 -8.83806 -12.3218
ltibia 29.8942
lfoot -4.12418 3.75401
ltoes -40.339
